<svg width="456" height="456" viewBox="0 0 456 456" version="1.1" xmlns="http://www.w3.org/2000/svg">

	<!-- Округлая подложка для эффекта «супер-иконки» (опционально, можно убрать fill) -->
	<rect width="456" height="456" rx="90" fill="#1E88E5"/>

	<g fill="#FFFFFF" transform="translate(12, 0)">
		<!-- Маленькое ушко/кольцо на крышке -->
		<path d="M 216,65 C 205,65 196,74 196,85 C 196,96 205,105 216,105 C 227,105 236,96 236,85 C 236,74 227,65 216,65 Z M 216,77 C 220,77 224,81 224,85 C 224,89 220,93 216,93 C 212,93 208,89 208,85 C 208,81 212,77 216,77 Z" />

		<!-- Крышка бидона с мягкими углами -->
		<rect x="186" y="100" width="60" height="24" rx="6" />

		<!-- Горловина -->
		<rect x="194" y="122" width="44" height="20" />

		<!-- Основное тело бидона и эргономичная ручка -->
		<path d="M 194,142 
             C 180,165 146,195 146,240 
             L 146,360 
             C 146,380 162,396 182,396 
             L 250,396 
             C 270,396 286,380 286,360 
             L 286,240 
             C 286,195 252,165 238,142 
             Z 
             M 256,210 
             C 264,222 266,235 266,250 
             L 266,290 
             C 266,300 258,308 248,308 
             C 238,308 230,300 230,290 
             L 230,250 
             C 230,235 232,222 240,210 
             C 244,204 248,200 248,200 
             C 248,200 252,204 256,210 Z" />
	</g>
</svg>
